<svg width="138" height="138" xmlns="http://www.w3.org/2000/svg" xmlns:xlink="http://www.w3.org/1999/xlink" xml:space="preserve" overflow="hidden"><defs><clipPath id="clip0"><rect x="287" y="466" width="138" height="138"/></clipPath><clipPath id="clip1"><path d="M424.575 569.941 320.992 603.558 287.375 499.976 390.958 466.358Z" fill-rule="evenodd" clip-rule="evenodd"/></clipPath><clipPath id="clip2"><path d="M424.575 569.941 320.992 603.558 287.375 499.976 390.958 466.358Z" fill-rule="evenodd" clip-rule="evenodd"/></clipPath><clipPath id="clip3"><path d="M424.575 569.941 320.992 603.558 287.375 499.976 390.958 466.358Z" fill-rule="evenodd" clip-rule="evenodd"/></clipPath></defs><g clip-path="url(#clip0)" transform="translate(-287 -466)"><g clip-path="url(#clip1)"><g clip-path="url(#clip2)"><g clip-path="url(#clip3)"><path d="M305.848 518.31 323.713 527.42C326.142 528.659 328.834 528.501 331.068 527.299L337.356 530.506C334.899 537.266 334.658 544.977 337.04 552.314 342.818 570.118 362.111 579.957 379.915 574.179 397.718 568.401 407.557 549.107 401.779 531.304 396.001 513.5 376.707 503.662 358.904 509.44 351.567 511.821 345.575 516.509 341.437 522.502L335.149 519.296C334.81 516.782 333.358 514.51 330.928 513.271L313.063 504.161C311.063 503.141 308.875 503.016 306.933 503.646 304.991 504.277 303.294 505.662 302.274 507.663 300.449 511.595 301.99 516.342 305.848 518.31ZM361.148 515.986C375.39 511.364 390.825 519.235 395.448 533.478 400.07 547.72 392.199 563.155 377.956 567.778 363.714 572.4 348.279 564.529 343.656 550.286 339.034 536.044 346.905 520.609 361.148 515.986Z"/></g></g></g></g></svg>