<svg width="130" height="130" xmlns="http://www.w3.org/2000/svg" xmlns:xlink="http://www.w3.org/1999/xlink" xml:space="preserve" overflow="hidden"><defs><clipPath id="clip0"><rect x="301" y="475" width="130" height="130"/></clipPath><clipPath id="clip1"><path d="M323.79 604.041 301.569 497.431 408.179 475.21 430.4 581.82Z" fill-rule="evenodd" clip-rule="evenodd"/></clipPath><clipPath id="clip2"><path d="M323.79 604.041 301.569 497.431 408.179 475.21 430.4 581.82Z" fill-rule="evenodd" clip-rule="evenodd"/></clipPath><clipPath id="clip3"><path d="M323.79 604.041 301.569 497.431 408.179 475.21 430.4 581.82Z" fill-rule="evenodd" clip-rule="evenodd"/></clipPath></defs><g clip-path="url(#clip0)" transform="translate(-301 -475)"><g clip-path="url(#clip1)"><g clip-path="url(#clip2)"><g clip-path="url(#clip3)"><path d="M321.185 507.595C322.259 508.298 322.536 509.631 321.81 510.593 321.107 511.667 319.774 511.945 318.812 511.218 317.849 510.492 317.46 509.182 318.187 508.22 318.913 507.257 320.246 506.98 321.185 507.595ZM314.563 505.846C312.981 508.262 313.139 511.242 314.869 513.431 315.703 514.647 321.538 518.182 321.538 518.182 329.724 523.544 342.704 530.225 349.839 532.214L338.259 550.039C337.556 551.113 337.834 552.445 338.907 553.149L344.275 556.665 373.02 512.782 367.652 509.266C366.579 508.562 365.246 508.84 364.543 509.914L352.828 527.651C348.02 521.817 336.844 512.674 328.658 507.312 328.658 507.312 322.975 503.398 321.638 503.097 318.94 502.385 316.146 503.431 314.563 505.846Z"/><path d="M382.656 581.806C383.73 582.509 385.062 582.231 385.765 581.158L407.302 548.279 383.549 532.72 384.78 530.841 409.676 544.656 412.049 541.032C412.752 539.959 412.475 538.626 411.401 537.923L377.18 515.507 348.435 559.39 382.656 581.806Z"/></g></g></g></g></svg>