<svg width="138" height="138" xmlns="http://www.w3.org/2000/svg" xmlns:xlink="http://www.w3.org/1999/xlink" xml:space="preserve" overflow="hidden"><defs><clipPath id="clip0"><rect x="296" y="471" width="138" height="138"/></clipPath><clipPath id="clip1"><path d="M433.908 574.608 330.326 608.225 296.709 504.642 400.291 471.025Z" fill-rule="evenodd" clip-rule="evenodd"/></clipPath><clipPath id="clip2"><path d="M433.908 574.608 330.326 608.225 296.709 504.642 400.291 471.025Z" fill-rule="evenodd" clip-rule="evenodd"/></clipPath><clipPath id="clip3"><path d="M433.908 574.608 330.326 608.225 296.709 504.642 400.291 471.025Z" fill-rule="evenodd" clip-rule="evenodd"/></clipPath></defs><g clip-path="url(#clip0)" transform="translate(-296 -471)"><g clip-path="url(#clip1)"><g clip-path="url(#clip2)"><g clip-path="url(#clip3)"><path d="M360.492 551.719 360.457 554.736 363.201 556.135 365.622 554.336C366.458 554.504 367.312 554.568 368.164 554.524L370.26 556.647 373.152 555.708 373.61 552.745C374.327 552.277 374.984 551.724 375.567 551.096L378.584 551.131 379.983 548.387 378.237 545.948C378.423 545.111 378.498 544.252 378.459 543.396L380.592 541.296 379.667 538.447 376.704 537.99C376.24 537.274 375.687 536.62 375.059 536.043L375.093 533.026 372.263 531.655 369.845 533.466C369.008 533.293 368.153 533.226 367.3 533.266L365.204 531.144 362.312 532.082 361.837 534.991C361.135 535.451 360.49 535.992 359.916 536.605L356.906 536.556 355.51 539.31 357.306 541.721C357.125 542.567 357.041 543.43 357.056 544.295L354.934 546.391 355.883 549.315 358.846 549.773C359.307 550.491 359.86 551.145 360.492 551.719ZM366.317 539.536C368.701 538.762 371.26 540.068 372.034 542.451 372.807 544.835 371.502 547.394 369.119 548.168 366.738 548.902 364.206 547.611 363.402 545.253 362.628 542.869 363.934 540.31 366.317 539.536Z"/><path d="M347.597 513.422 366.167 507.396C367.853 506.736 368.686 504.835 368.027 503.149 367.422 501.601 365.754 500.751 364.146 501.17L345.577 507.197C343.891 507.856 343.058 509.757 343.717 511.444 344.322 512.991 345.99 513.841 347.597 513.422Z"/><path d="M351.435 493.643C347.914 494.792 345.864 498.451 346.723 502.054L360.199 497.68C358.773 494.26 354.962 492.504 351.435 493.643Z"/><path d="M340.552 551.87 340.853 552.797C345.908 567.436 361.714 575.373 376.474 570.683L376.474 570.683C391.174 565.812 399.307 550.105 394.802 535.289L394.501 534.361C393.366 531.198 391.707 528.249 389.595 525.637 387.589 523.176 385.16 521.092 382.422 519.485 379.079 517.6 374.683 513.242 372.783 511.283 372.205 510.693 371.341 510.483 370.556 510.742L346.063 518.691C345.276 518.942 344.7 519.619 344.579 520.437 344.191 523.139 343.189 529.236 341.593 532.736 340.321 535.645 339.579 538.757 339.4 541.927 339.225 545.282 339.614 548.643 340.552 551.87ZM346.798 549.95C346.07 547.445 345.76 544.838 345.88 542.233 346.021 539.876 346.579 537.563 347.527 535.401 348.997 531.773 350.037 527.985 350.626 524.115L370.048 517.812C372.782 520.613 375.833 523.085 379.141 525.177 381.179 526.37 382.988 527.915 384.486 529.74 386.13 531.769 387.429 534.055 388.328 536.507L388.58 537.284C392.064 548.676 385.815 560.766 374.506 564.512L374.506 564.512C363.153 568.12 350.996 562.004 347.126 550.738Z"/><path d="M377.609 574.99C376.417 575.377 375.764 576.656 376.151 577.848L378.602 585.401C378.989 586.593 380.269 587.245 381.461 586.859 382.653 586.472 383.305 585.192 382.918 584L380.467 576.447C380.08 575.256 378.801 574.603 377.609 574.99Z"/><path d="M400.135 557.196C399.022 556.632 397.663 557.073 397.092 558.183 396.529 559.297 396.97 560.656 398.08 561.226L405.161 564.855C406.305 565.367 407.647 564.854 408.159 563.711 408.635 562.646 408.226 561.393 407.213 560.814Z"/><path d="M350.076 572.285C349.501 572.472 349.023 572.88 348.75 573.419L345.171 580.544C344.79 581.738 345.449 583.014 346.642 583.395 347.584 583.696 348.612 583.352 349.184 582.545L352.828 575.399C353.391 574.286 352.95 572.927 351.84 572.357 351.286 572.096 350.649 572.07 350.076 572.285Z"/><path d="M401.842 535.52 409.395 533.069C410.587 532.682 411.24 531.402 410.853 530.211 410.466 529.019 409.186 528.366 407.995 528.753L400.442 531.204C399.25 531.591 398.597 532.871 398.984 534.063 399.371 535.254 400.651 535.907 401.842 535.52Z"/><path d="M386.356 514.738 389.946 507.609C390.599 506.54 390.263 505.144 389.194 504.49 388.125 503.837 386.728 504.173 386.074 505.242 386.013 505.342 385.96 505.446 385.915 505.554L382.325 512.682C381.844 513.839 382.391 515.167 383.548 515.649 384.581 516.078 385.772 515.692 386.356 514.738Z"/><path d="M335.237 531.781C336.323 532.407 337.71 532.033 338.335 530.948 338.961 529.862 338.587 528.475 337.502 527.849 337.437 527.812 337.371 527.778 337.303 527.747L330.157 524.103C329.097 523.435 327.696 523.753 327.028 524.813 326.36 525.873 326.678 527.274 327.737 527.942 327.881 528.033 328.035 528.107 328.195 528.163Z"/><path d="M327.687 559.67 335.24 557.219C336.431 556.832 337.084 555.553 336.697 554.361 336.31 553.169 335.031 552.516 333.839 552.903L326.286 555.354C325.094 555.741 324.442 557.021 324.828 558.213 325.215 559.405 326.495 560.057 327.687 559.67Z"/></g></g></g></g></svg>